

<svg xmlns="http://www.w3.org/2000/svg" >
<symbol viewBox="0 0 30 30" id="masonry">
    <path d="M6 5C5.448 5 5 5.448 5 6L5 10C5 10.552 5.448 11 6 11L10 11C10.552 11 11 10.552 11 10L11 6C11 5.448 10.552 5 10 5L6 5 z M 13 5C12.448 5 12 5.448 12 6L12 10C12 10.552 12.448 11 13 11L17 11C17.552 11 18 10.552 18 10L18 6C18 5.448 17.552 5 17 5L13 5 z M 20 5C19.448 5 19 5.448 19 6L19 10C19 10.552 19.448 11 20 11L24 11C24.552 11 25 10.552 25 10L25 6C25 5.448 24.552 5 24 5L20 5 z M 6 12C5.448 12 5 12.448 5 13L5 17C5 17.552 5.448 18 6 18L10 18C10.552 18 11 17.552 11 17L11 13C11 12.448 10.552 12 10 12L6 12 z M 13 12C12.448 12 12 12.448 12 13L12 17C12 17.552 12.448 18 13 18L17 18C17.552 18 18 17.552 18 17L18 13C18 12.448 17.552 12 17 12L13 12 z M 20 12C19.448 12 19 12.448 19 13L19 17C19 17.552 19.448 18 20 18L24 18C24.552 18 25 17.552 25 17L25 13C25 12.448 24.552 12 24 12L20 12 z M 6 19C5.448 19 5 19.448 5 20L5 24C5 24.552 5.448 25 6 25L10 25C10.552 25 11 24.552 11 24L11 20C11 19.448 10.552 19 10 19L6 19 z M 13 19C12.448 19 12 19.448 12 20L12 24C12 24.552 12.448 25 13 25L17 25C17.552 25 18 24.552 18 24L18 20C18 19.448 17.552 19 17 19L13 19 z M 20 19C19.448 19 19 19.448 19 20L19 24C19 24.552 19.448 25 20 25L24 25C24.552 25 25 24.552 25 24L25 20C25 19.448 24.552 19 24 19L20 19 z"/>
</symbol>
<symbol viewBox="0 0 30 30" id="web">
    <path d="M15 3C10.57 3 6.7010469 5.419 4.6230469 9L7.0136719 9C8.0576719 7.615 9.4495 6.5045469 11.0625 5.8105469C10.5385 6.7005469 10.101672 7.783 9.7636719 9L11.871094 9C12.661094 6.541 13.869 5 15 5C16.131 5 17.338906 6.541 18.128906 9L20.236328 9C19.898328 7.783 19.4615 6.7005469 18.9375 5.8105469C20.5515 6.5045469 21.944281 7.615 22.988281 9L25.376953 9C23.297953 5.419 19.43 3 15 3 z M 2.1855469 12L3.7539062 18L5.1914062 18L6.1777344 14.324219L6.2519531 14.324219L7.2539062 18L8.6835938 18L10.251953 12L8.6796875 12L7.8945312 15.978516L7.8183594 15.978516L6.8242188 12L5.6035156 12L4.6425781 15.978516L4.5664062 15.978516L3.7695312 12L2.1855469 12 z M 10.966797 12L12.533203 18L13.972656 18L14.958984 14.324219L15.033203 14.324219L16.035156 18L17.466797 18L19.033203 12L17.462891 12L16.675781 15.978516L16.601562 15.978516L15.607422 12L14.384766 12L13.423828 15.978516L13.347656 15.978516L12.550781 12L10.966797 12 z M 19.748047 12L21.316406 18L22.755859 18L23.740234 14.324219L23.814453 14.324219L24.816406 18L26.246094 18L27.814453 12L26.242188 12L25.457031 15.978516L25.382812 15.978516L24.388672 12L23.166016 12L22.205078 15.978516L22.130859 15.978516L21.332031 12L19.748047 12 z M 4.6230469 21C6.7010469 24.581 10.57 27 15 27C19.43 27 23.298953 24.581 25.376953 21L22.988281 21C21.944281 22.385 20.552453 23.495453 18.939453 24.189453C19.463453 23.299453 19.898328 22.217 20.236328 21L18.128906 21C17.339906 23.459 16.132953 25 15.001953 25C13.870953 25 12.663047 23.459 11.873047 21L9.7636719 21C10.101672 22.217 10.5385 23.299453 11.0625 24.189453C9.4485 23.495453 8.0576719 22.385 7.0136719 21L4.6230469 21 z"/>
</symbol>
<symbol viewBox="0 0 30 30" id="business">
    <path d="M14 3C12.895 3 12 3.895 12 5L4 5C2.895 5 2 5.895 2 7L2 16C2 17.105 2.895 18 4 18L26 18C27.105 18 28 17.105 28 16L28 7C28 5.895 27.105 5 26 5L18 5C18 3.895 17.105 3 16 3L14 3 z M 7 13C7.552 13 8 13.448 8 14L8 15C8 15.552 7.552 16 7 16C6.448 16 6 15.552 6 15L6 14C6 13.448 6.448 13 7 13 z M 23 13C23.552 13 24 13.448 24 14L24 15C24 15.552 23.552 16 23 16C22.448 16 22 15.552 22 15L22 14C22 13.448 22.448 13 23 13 z M 2 19.443359L2 23C2 24.105 2.895 25 4 25L26 25C27.105 25 28 24.105 28 23L28 19.443359C27.409 19.787359 26.732 20 26 20L4 20C3.268 20 2.591 19.787359 2 19.443359 z"/>
</symbol>
<symbol viewBox="0 0 30 30" id="resume">
    <path d="M7 2C5.895 2 5 2.895 5 4L5 26C5 27.105 5.895 28 7 28L16.3125 28C17.0765 25.778 19.064766 25.045297 20.134766 24.654297C20.196766 24.631297 20.266891 24.605125 20.337891 24.578125C20.101891 24.268125 19.878937 23.920828 19.710938 23.548828C19.212937 23.016828 18.849609 22.237766 18.849609 21.259766C18.849609 21.090766 18.861766 20.930297 18.884766 20.779297C18.720766 20.337297 18.585937 19.786016 18.585938 19.166016C18.587937 16.173016 20.864 14 24 14C24.357 14 24.687 14.06525 25 14.15625L25 9.5C25 9.235 24.895031 8.9799688 24.707031 8.7929688L18.207031 2.2929688C18.019031 2.1049688 17.765 2 17.5 2L7 2 z M 17 3.9042969L23.095703 10L18 10C17.448 10 17 9.552 17 9L17 3.9042969 z M 24 15.998047C22.116 15.998047 20.587891 17.134016 20.587891 19.166016C20.587891 20.025016 21.068359 20.693359 21.068359 20.693359C21.068359 20.693359 20.849609 20.800766 20.849609 21.259766C20.849609 22.150766 21.423828 22.365234 21.423828 22.365234C21.503828 23.071234 22.599609 24.105469 22.599609 24.105469L22.599609 25.283203C22.010609 27.052203 18 26.039 18 30L30 30C30 26.039 25.989391 27.052203 25.400391 25.283203L25.400391 24.105469C25.400391 24.105469 26.497172 23.071234 26.576172 22.365234C26.576172 22.365234 27.150391 21.968766 27.150391 21.259766C27.150391 20.767766 26.931641 20.693359 26.931641 20.693359C26.931641 20.693359 27.324219 19.946422 27.324219 19.232422C27.324219 17.801422 26.607391 16.699219 25.400391 16.699219C25.400391 16.699219 24.887 15.998047 24 15.998047 z"/>
</symbol>
<symbol viewBox="0 0 30 30" id="close">
    <path d="M15,3C8.373,3,3,8.373,3,15c0,6.627,5.373,12,12,12s12-5.373,12-12C27,8.373,21.627,3,15,3z M16.414,15 c0,0,3.139,3.139,3.293,3.293c0.391,0.391,0.391,1.024,0,1.414c-0.391,0.391-1.024,0.391-1.414,0C18.139,19.554,15,16.414,15,16.414 s-3.139,3.139-3.293,3.293c-0.391,0.391-1.024,0.391-1.414,0c-0.391-0.391-0.391-1.024,0-1.414C10.446,18.139,13.586,15,13.586,15 s-3.139-3.139-3.293-3.293c-0.391-0.391-0.391-1.024,0-1.414c0.391-0.391,1.024-0.391,1.414,0C11.861,10.446,15,13.586,15,13.586 s3.139-3.139,3.293-3.293c0.391-0.391,1.024-0.391,1.414,0c0.391,0.391,0.391,1.024,0,1.414C19.554,11.861,16.414,15,16.414,15z"/>
</symbol>
<symbol viewBox="0 0 30 30" id="technology">
    <path d="M20.779297 1C20.524297 1 20.30925 1.1923125 20.28125 1.4453125L20.240234 1.8242188C20.193234 2.2472188 19.88275 2.5895 19.46875 2.6875C19.36575 2.7125 19.261156 2.7375781 19.160156 2.7675781C18.754156 2.8855781 18.318359 2.7452969 18.068359 2.4042969L17.84375 2.0996094C17.69275 1.8946094 17.412406 1.8358906 17.191406 1.9628906L16.808594 2.1835938C16.587594 2.3105937 16.497609 2.5834062 16.599609 2.8164062L16.755859 3.1699219C16.925859 3.5579219 16.828484 4.0068281 16.521484 4.2988281C16.445484 4.3708281 16.371828 4.4454844 16.298828 4.5214844C16.005828 4.8284844 15.556969 4.9268594 15.167969 4.7558594L14.814453 4.6015625C14.581453 4.4995625 14.308641 4.5875937 14.181641 4.8085938L13.960938 5.1914062C13.833937 5.4124063 13.892656 5.6947031 14.097656 5.8457031L14.402344 6.0703125C14.743344 6.3203125 14.883625 6.7561094 14.765625 7.1621094C14.736625 7.2631094 14.710547 7.36575 14.685547 7.46875C14.587547 7.88275 14.245266 8.1932344 13.822266 8.2402344L13.443359 8.2832031C13.191359 8.3102031 13 8.5242969 13 8.7792969L13 9.2207031C13 9.4757031 13.192312 9.69075 13.445312 9.71875L13.824219 9.7597656C14.247219 9.8067656 14.587547 10.11725 14.685547 10.53125C14.710547 10.63425 14.737578 10.738844 14.767578 10.839844C14.885578 11.245844 14.745297 11.681641 14.404297 11.931641L14.097656 12.15625C13.892656 12.30725 13.833937 12.587594 13.960938 12.808594L14.181641 13.191406C14.308641 13.412406 14.583406 13.502391 14.816406 13.400391L15.169922 13.244141C15.557922 13.074141 16.006828 13.171516 16.298828 13.478516C16.370828 13.554516 16.445484 13.628172 16.521484 13.701172C16.828484 13.994172 16.926859 14.443031 16.755859 14.832031L16.599609 15.185547C16.497609 15.418547 16.587594 15.690359 16.808594 15.818359L17.191406 16.039062C17.412406 16.166062 17.69275 16.107344 17.84375 15.902344L18.068359 15.597656C18.318359 15.256656 18.754156 15.116375 19.160156 15.234375C19.261156 15.263375 19.36575 15.289453 19.46875 15.314453C19.88275 15.412453 20.193234 15.754734 20.240234 16.177734L20.28125 16.556641C20.30925 16.808641 20.524297 17 20.779297 17L21.220703 17C21.475703 17 21.69075 16.807688 21.71875 16.554688L21.759766 16.175781C21.806766 15.752781 22.11725 15.412453 22.53125 15.314453C22.63425 15.289453 22.738844 15.261422 22.839844 15.232422C23.245844 15.114422 23.681641 15.254703 23.931641 15.595703L24.15625 15.902344C24.30725 16.107344 24.587594 16.166062 24.808594 16.039062L25.191406 15.818359C25.412406 15.691359 25.502391 15.416594 25.400391 15.183594L25.244141 14.830078C25.074141 14.442078 25.171516 13.994172 25.478516 13.701172C25.554516 13.629172 25.628172 13.554516 25.701172 13.478516C25.994172 13.171516 26.442078 13.073141 26.830078 13.244141L27.183594 13.398438C27.416594 13.500438 27.690359 13.412406 27.818359 13.191406L28.039062 12.808594C28.166062 12.587594 28.107344 12.305297 27.902344 12.154297L27.595703 11.929688C27.254703 11.679688 27.114422 11.243891 27.232422 10.837891C27.261422 10.736891 27.289453 10.63425 27.314453 10.53125C27.412453 10.11725 27.752781 9.8067656 28.175781 9.7597656L28.556641 9.7167969C28.808641 9.6897969 29 9.4757031 29 9.2207031L29 8.7792969C29 8.5242969 28.807688 8.30925 28.554688 8.28125L28.175781 8.2402344C27.752781 8.1932344 27.4105 7.88275 27.3125 7.46875C27.2875 7.36575 27.262422 7.2611563 27.232422 7.1601562C27.114422 6.7541563 27.254703 6.3183594 27.595703 6.0683594L27.900391 5.84375C28.105391 5.69275 28.164109 5.4124062 28.037109 5.1914062L27.816406 4.8085938C27.689406 4.5875937 27.416594 4.4976094 27.183594 4.5996094L26.830078 4.7558594C26.442078 4.9258594 25.992219 4.8284844 25.699219 4.5214844C25.627219 4.4454844 25.552563 4.3718281 25.476562 4.2988281C25.169563 4.0058281 25.071188 3.5579219 25.242188 3.1699219L25.398438 2.8164062C25.500438 2.5834062 25.410453 2.3096406 25.189453 2.1816406L24.806641 1.9609375C24.585641 1.8339375 24.305297 1.8926562 24.154297 2.0976562L23.929688 2.4042969C23.679688 2.7452969 23.243891 2.8855781 22.837891 2.7675781C22.736891 2.7385781 22.632297 2.7105469 22.529297 2.6855469C22.115297 2.5875469 21.804813 2.2472187 21.757812 1.8242188L21.716797 1.4453125C21.690797 1.1923125 21.475703 1 21.220703 1L20.779297 1 z M 21 5C23.209 5 25 6.791 25 9C25 11.209 23.209 13 21 13C18.791 13 17 11.209 17 9C17 6.791 18.791 5 21 5 z M 5.7792969 6C5.5242969 6 5.30925 6.1923125 5.28125 6.4453125L5.2714844 6.5449219C5.2384844 6.8479219 5.0235156 7.1046406 4.7285156 7.1816406C4.2455156 7.3076406 3.7929062 7.5018125 3.3789062 7.7578125C3.1939062 7.8728125 2.9590625 7.8684219 2.7890625 7.7324219L2.5800781 7.5644531C2.3810781 7.4054531 2.0940625 7.4215625 1.9140625 7.6015625L1.6015625 7.9140625C1.4215625 8.0940625 1.4054531 8.3810781 1.5644531 8.5800781L1.7324219 8.7890625C1.8684219 8.9590625 1.8728125 9.1929062 1.7578125 9.3789062C1.5018125 9.7929062 1.3056875 10.245516 1.1796875 10.728516C1.1026875 11.023516 0.84696875 11.238484 0.54296875 11.271484L0.44335938 11.28125C0.19135938 11.30925 0 11.524297 0 11.779297L0 12.220703C0 12.475703 0.1923125 12.69075 0.4453125 12.71875L0.54492188 12.728516C0.84792187 12.762516 1.1046406 12.976484 1.1816406 13.271484C1.3076406 13.754484 1.5018125 14.207094 1.7578125 14.621094C1.8728125 14.806094 1.8684219 15.040938 1.7324219 15.210938L1.5644531 15.419922C1.4054531 15.618922 1.4205625 15.905938 1.6015625 16.085938L1.9121094 16.398438C2.0921094 16.578437 2.379125 16.594547 2.578125 16.435547L2.7871094 16.267578C2.9571094 16.131578 3.1929063 16.127188 3.3789062 16.242188C3.7929063 16.498188 4.2455156 16.692359 4.7285156 16.818359C5.0235156 16.895359 5.2365313 17.151078 5.2695312 17.455078L5.28125 17.554688C5.31025 17.807687 5.5242969 18 5.7792969 18L6.2207031 18C6.4757031 18 6.69075 17.807688 6.71875 17.554688L6.7285156 17.455078C6.7615156 17.152078 6.9764844 16.895359 7.2714844 16.818359C7.7544844 16.692359 8.2070937 16.498187 8.6210938 16.242188C8.8060938 16.127188 9.0409375 16.131578 9.2109375 16.267578L9.4199219 16.435547C9.6189219 16.594547 9.9059375 16.579437 10.085938 16.398438L10.398438 16.085938C10.578437 15.905938 10.594547 15.618922 10.435547 15.419922L10.267578 15.210938C10.131578 15.040938 10.127188 14.807094 10.242188 14.621094C10.498188 14.207094 10.692359 13.754484 10.818359 13.271484C10.895359 12.976484 11.151078 12.761516 11.455078 12.728516L11.554688 12.71875C11.807687 12.69075 12 12.475703 12 12.220703L12 11.779297C12 11.524297 11.807688 11.30925 11.554688 11.28125L11.455078 11.271484C11.152078 11.238484 10.895359 11.023516 10.818359 10.728516C10.692359 10.245516 10.498187 9.7929062 10.242188 9.3789062C10.127187 9.1939062 10.131578 8.9590625 10.267578 8.7890625L10.435547 8.5800781C10.594547 8.3810781 10.579437 8.0940625 10.398438 7.9140625L10.085938 7.6015625C9.9059375 7.4215625 9.6189219 7.4054531 9.4199219 7.5644531L9.2109375 7.7324219C9.0409375 7.8684219 8.8070938 7.8728125 8.6210938 7.7578125C8.2070938 7.5018125 7.7544844 7.3056875 7.2714844 7.1796875C6.9764844 7.1036875 6.7615156 6.8479219 6.7285156 6.5449219L6.71875 6.4453125C6.69075 6.1923125 6.4757031 6 6.2207031 6L5.7792969 6 z M 21 7C19.895 7 19 7.895 19 9C19 10.105 19.895 11 21 11C22.105 11 23 10.105 23 9C23 7.895 22.105 7 21 7 z M 6 9C7.657 9 9 10.343 9 12C9 13.657 7.657 15 6 15C4.343 15 3 13.657 3 12C3 10.343 4.343 9 6 9 z M 6 11C5.448 11 5 11.448 5 12C5 12.552 5.448 13 6 13C6.552 13 7 12.552 7 12C7 11.448 6.552 11 6 11 z M 18.023438 18C17.831297 17.996016 17.646328 18.098391 17.548828 18.275391L17.410156 18.523438C17.299156 18.725438 17.07175 18.824109 16.84375 18.787109C16.33475 18.705109 15.813063 18.699484 15.289062 18.771484C14.969062 18.815484 14.656953 18.650188 14.501953 18.367188L14.449219 18.275391C14.319219 18.038391 14.033203 17.939969 13.783203 18.042969L13.351562 18.220703C13.102562 18.323703 12.969922 18.598422 13.044922 18.857422L13.074219 18.958984C13.164219 19.268984 13.059734 19.607734 12.802734 19.802734C12.381734 20.121734 12.015844 20.494109 11.714844 20.912109C11.579844 21.099109 11.349906 21.192906 11.128906 21.128906L10.855469 21.048828C10.596469 20.973828 10.32175 21.105469 10.21875 21.355469L10.039062 21.787109C9.9360625 22.036109 10.037437 22.323125 10.273438 22.453125L10.523438 22.591797C10.725437 22.702797 10.823109 22.930203 10.787109 23.158203C10.705109 23.667203 10.697531 24.188891 10.769531 24.712891C10.813531 25.032891 10.650188 25.346953 10.367188 25.501953L10.275391 25.552734C10.038391 25.682734 9.9380156 25.96875 10.041016 26.21875L10.220703 26.650391C10.323703 26.899391 10.598422 27.032031 10.857422 26.957031L10.957031 26.927734C11.267031 26.837734 11.605781 26.942219 11.800781 27.199219C12.119781 27.620219 12.494109 27.986109 12.912109 28.287109C13.099109 28.422109 13.190953 28.652047 13.126953 28.873047L13.048828 29.146484C12.973828 29.405484 13.103516 29.679203 13.353516 29.783203L13.785156 29.962891C14.034156 30.065891 14.322125 29.964516 14.453125 29.728516L14.589844 29.480469C14.700844 29.278469 14.92825 29.180797 15.15625 29.216797C15.66525 29.298797 16.188891 29.304422 16.712891 29.232422C17.032891 29.188422 17.345 29.353719 17.5 29.636719L17.550781 29.728516C17.680781 29.965516 17.96875 30.065891 18.21875 29.962891L18.650391 29.783203C18.899391 29.680203 19.030078 29.405484 18.955078 29.146484L18.927734 29.044922C18.837734 28.734922 18.942219 28.396172 19.199219 28.201172C19.620219 27.882172 19.984156 27.509797 20.285156 27.091797C20.420156 26.904797 20.652047 26.812953 20.873047 26.876953L21.146484 26.955078C21.405484 27.030078 21.680203 26.898437 21.783203 26.648438L21.962891 26.216797C22.065891 25.967797 21.965516 25.680781 21.728516 25.550781L21.478516 25.414062C21.276516 25.303062 21.178844 25.075656 21.214844 24.847656C21.296844 24.338656 21.304422 23.816969 21.232422 23.292969C21.188422 22.972969 21.351766 22.658906 21.634766 22.503906L21.726562 22.453125C21.963562 22.323125 22.063938 22.035156 21.960938 21.785156L21.78125 21.353516C21.67625 21.102516 21.403531 20.970875 21.144531 21.046875L21.042969 21.076172C20.732969 21.166172 20.394219 21.061687 20.199219 20.804688C19.880219 20.383688 19.507844 20.017797 19.089844 19.716797C18.902844 19.581797 18.809047 19.351859 18.873047 19.130859L18.953125 18.857422C19.028125 18.598422 18.896484 18.323703 18.646484 18.220703L18.214844 18.041016C18.152594 18.015266 18.087484 18.001328 18.023438 18 z M 16 21C17.657 21 19 22.343 19 24C19 25.657 17.657 27 16 27C14.343 27 13 25.657 13 24C13 22.343 14.343 21 16 21 z M 16 23C15.448 23 15 23.448 15 24C15 24.552 15.448 25 16 25C16.552 25 17 24.552 17 24C17 23.448 16.552 23 16 23 z"  />
</symbol>
<symbol viewBox="0 0 30 30" id="plugins">
    <path d="M15 3.0644531C14.768946 3.0643329 14.537078 3.1033494 14.316406 3.1835938L9.3164062 5.0019531C8.5286353 5.2884154 8 6.0453522 8 6.8828125L8 12.628906C8 12.847224 8.0421622 13.056898 8.109375 13.257812L3.3164062 15.001953C2.5286353 15.288415 2 16.045352 2 16.882812L2 22.628906C2 23.410362 2.4593997 24.125911 3.171875 24.449219L8.1699219 26.722656C8.6959395 26.962664 9.3040605 26.962664 9.8300781 26.722656L14.828125 24.449219C14.891192 24.4206 14.941042 24.374383 15 24.339844C15.058958 24.374383 15.108808 24.4206 15.171875 24.449219L20.169922 26.722656C20.69594 26.962664 21.30406 26.962664 21.830078 26.722656L26.828125 24.449219C27.5406 24.125911 28 23.410362 28 22.628906L28 16.882812C28 16.045344 27.46927 15.288377 26.683594 15.001953L21.890625 13.257812C21.957838 13.056898 22 12.847224 22 12.628906L22 6.8828125C22 6.0453438 21.46927 5.2883767 20.683594 5.0019531L15.683594 3.1835938 A 1.0001 1.0001 0 0 0 15.681641 3.1835938C15.461295 3.1038304 15.231054 3.0645734 15 3.0644531 z M 15 5.0644531L19.451172 6.6816406L15 8.3007812L10.548828 6.6816406L15 5.0644531 z M 10 8.609375L14 10.064453L14 14.449219L10 12.628906L10 8.609375 z M 9 15.064453L13.451172 16.681641L9 18.300781L4.5488281 16.681641L9 15.064453 z M 21 15.064453L25.451172 16.681641L21 18.300781L16.548828 16.681641L21 15.064453 z M 4 18.609375L8 20.064453L8 24.449219L4 22.628906L4 18.609375 z M 16 18.609375L20 20.064453L20 24.449219L16 22.628906L16 18.609375 z"/>
</symbol>
<symbol viewBox="0 0 30 30" id="descr">
    <path d="M28.232422 2C27.779922 2 27.327422 2.1725781 26.982422 2.5175781L26.457031 3.0429688L28.957031 5.5429688L29.482422 5.0175781C30.172422 4.3275781 30.172422 3.2075781 29.482422 2.5175781C29.137422 2.1725781 28.684922 2 28.232422 2 z M 6 4C4.895 4 4 4.895 4 6L4 24C4 25.105 4.895 26 6 26L24 26C25.105 26 26 25.105 26 24L26 11.328125L24 13.328125L24 24L6 24L6 10L16.671875 10L22.671875 4L6 4 z M 25.042969 4.4570312L14.474609 15.025391L14 18L16.974609 17.525391L27.542969 6.9570312L25.042969 4.4570312 z"/>
</symbol>
<symbol viewBox="0 0 30 30" id="cross">
    <path d="M7.9785156 5.9804688 A 2.0002 2.0002 0 0 0 6.5859375 9.4140625L12.171875 15L6.5859375 20.585938 A 2.0002 2.0002 0 1 0 9.4140625 23.414062L15 17.828125L20.585938 23.414062 A 2.0002 2.0002 0 1 0 23.414062 20.585938L17.828125 15L23.414062 9.4140625 A 2.0002 2.0002 0 0 0 21.960938 5.9804688 A 2.0002 2.0002 0 0 0 20.585938 6.5859375L15 12.171875L9.4140625 6.5859375 A 2.0002 2.0002 0 0 0 7.9785156 5.9804688 z"  />
</symbol>
<symbol viewBox="0 0 15 24" id="arrow-right">
    <path d="M0.375 1.85454L12 12L0.375 22.1455C-0.125 22.5818 -0.125 23.2727 0.375 23.6727C0.875 24.1091 1.66667 24.1091 2.125 23.6727L14.625 12.7636C14.875 12.5455 15 12.2545 15 12C15 11.7455 14.875 11.4545 14.625 11.2364L2.125 0.327272C1.625 -0.109091 0.833333 -0.109091 0.375 0.327272C-0.125 0.763636 -0.125 1.41818 0.375 1.85454Z"/>
</symbol>
<symbol viewBox="0 0 15 24" id="arrow-left">
    <path d="M14.625 22.1455L3 12L14.625 1.85455C15.125 1.41818 15.125 0.727273 14.625 0.327273C14.125 -0.109091 13.3333 -0.109091 12.875 0.327273L0.375001 11.2364C0.125001 11.4545 0 11.7455 0 12C0 12.2545 0.125001 12.5455 0.375001 12.7636L12.875 23.6727C13.375 24.1091 14.1667 24.1091 14.625 23.6727C15.125 23.2364 15.125 22.5818 14.625 22.1455Z"/>
</symbol>
<symbol viewBox="0 0 30 30" id="homepage">
    <path d="M15 2 A 1 1 0 0 0 14.300781 2.2851562L3.3925781 11.207031 A 1 1 0 0 0 3.3554688 11.236328L3.3183594 11.267578L3.3183594 11.269531 A 1 1 0 0 0 3 12 A 1 1 0 0 0 4 13L5 13L5 24C5 25.105 5.895 26 7 26L23 26C24.105 26 25 25.105 25 24L25 13L26 13 A 1 1 0 0 0 27 12 A 1 1 0 0 0 26.681641 11.267578L26.666016 11.255859 A 1 1 0 0 0 26.597656 11.199219L23 8.2558594L23 4C23 3.448 22.552 3 22 3L21 3C20.448 3 20 3.448 20 4L20 5.8027344L15.677734 2.2675781 A 1 1 0 0 0 15 2 z M 12 16L18 16L18 24L12 24L12 16 z"/>
</symbol>
<symbol viewBox="0 0 30 30" id="day">
    <path d="M14.984375 0.98632812 A 1.0001 1.0001 0 0 0 14 2L14 5 A 1.0001 1.0001 0 1 0 16 5L16 2 A 1.0001 1.0001 0 0 0 14.984375 0.98632812 z M 5.796875 4.7988281 A 1.0001 1.0001 0 0 0 5.1015625 6.515625L7.2226562 8.6367188 A 1.0001 1.0001 0 1 0 8.6367188 7.2226562L6.515625 5.1015625 A 1.0001 1.0001 0 0 0 5.796875 4.7988281 z M 24.171875 4.7988281 A 1.0001 1.0001 0 0 0 23.484375 5.1015625L21.363281 7.2226562 A 1.0001 1.0001 0 1 0 22.777344 8.6367188L24.898438 6.515625 A 1.0001 1.0001 0 0 0 24.171875 4.7988281 z M 15 8 A 7 7 0 0 0 8 15 A 7 7 0 0 0 15 22 A 7 7 0 0 0 22 15 A 7 7 0 0 0 15 8 z M 2 14 A 1.0001 1.0001 0 1 0 2 16L5 16 A 1.0001 1.0001 0 1 0 5 14L2 14 z M 25 14 A 1.0001 1.0001 0 1 0 25 16L28 16 A 1.0001 1.0001 0 1 0 28 14L25 14 z M 7.9101562 21.060547 A 1.0001 1.0001 0 0 0 7.2226562 21.363281L5.1015625 23.484375 A 1.0001 1.0001 0 1 0 6.515625 24.898438L8.6367188 22.777344 A 1.0001 1.0001 0 0 0 7.9101562 21.060547 z M 22.060547 21.060547 A 1.0001 1.0001 0 0 0 21.363281 22.777344L23.484375 24.898438 A 1.0001 1.0001 0 1 0 24.898438 23.484375L22.777344 21.363281 A 1.0001 1.0001 0 0 0 22.060547 21.060547 z M 14.984375 23.986328 A 1.0001 1.0001 0 0 0 14 25L14 28 A 1.0001 1.0001 0 1 0 16 28L16 25 A 1.0001 1.0001 0 0 0 14.984375 23.986328 z"/>
</symbol>
<symbol viewBox="0 0 30 30" id="night">
    <path d="M21.984375 2.4863281 A 1.0001 1.0001 0 0 0 21 3.5L21 4L20.5 4 A 1.0001 1.0001 0 1 0 20.5 6L21 6L21 6.5 A 1.0001 1.0001 0 1 0 23 6.5L23 6L23.5 6 A 1.0001 1.0001 0 1 0 23.5 4L23 4L23 3.5 A 1.0001 1.0001 0 0 0 21.984375 2.4863281 z M 8.5136719 6.046875 A 1.0001 1.0001 0 0 0 8.4335938 6.0507812C5.3980951 6.3391319 3 8.8892308 3 12C3 13.574112 3.6175159 15.00727 4.6171875 16.080078C3.6339019 16.899532 3 18.11811 3 19.5C3 21.985 5.015 24 7.5 24L22.5 24C24.985 24 27 21.985 27 19.5C27 17.535 25.731562 15.881578 23.976562 15.267578C23.853562 12.892578 21.906 11 19.5 11C19.014 11 18.555188 11.096281 18.117188 11.238281C16.991187 9.3032812 14.9 8 12.5 8C11.209979 8 10.011452 8.3801109 9.0019531 9.0292969C9.0018572 9.019295 9 9.0100264 9 9C9 8.4758733 9.1462539 7.989825 9.4003906 7.5390625 A 1.0001 1.0001 0 0 0 8.5136719 6.046875 z M 25.984375 7.9863281 A 1.0001 1.0001 0 0 0 25 9 A 1.0001 1.0001 0 1 0 25 11 A 1.0001 1.0001 0 1 0 27 11 A 1.0001 1.0001 0 1 0 27 9 A 1.0001 1.0001 0 0 0 25.984375 7.9863281 z M 7.1367188 8.4941406C7.1156199 8.674507 7 8.8132397 7 9C7 11.749516 9.2504839 14 12 14C12.18676 14 12.325493 13.88438 12.505859 13.863281C11.84329 15.131864 10.539523 16 9 16C6.7796254 16 5 14.220375 5 12C5 10.460477 5.8681356 9.1567102 7.1367188 8.4941406 z" />
</symbol>
<symbol viewBox="0 0 30 30" id="settings">
    <path d="M15 2C14.448 2 14 2.448 14 3L14 3.171875C14 3.649875 13.663406 4.0763437 13.191406 4.1523438C12.962406 4.1893437 12.735719 4.2322031 12.511719 4.2832031C12.047719 4.3892031 11.578484 4.1265 11.396484 3.6875L11.330078 3.53125C11.119078 3.02125 10.534437 2.7782344 10.023438 2.9902344C9.5134375 3.2012344 9.2704219 3.785875 9.4824219 4.296875L9.5488281 4.4570312C9.7328281 4.8970313 9.5856875 5.4179219 9.1796875 5.6699219C8.9836875 5.7919219 8.7924688 5.9197344 8.6054688 6.0527344C8.2174688 6.3297344 7.68075 6.2666875 7.34375 5.9296875L7.2226562 5.8085938C6.8316562 5.4175937 6.1985937 5.4175938 5.8085938 5.8085938C5.4185938 6.1995938 5.4185938 6.8326563 5.8085938 7.2226562L5.9296875 7.34375C6.2666875 7.68075 6.3297344 8.2164688 6.0527344 8.6054688C5.9197344 8.7924687 5.7919219 8.9836875 5.6699219 9.1796875C5.4179219 9.5856875 4.8960781 9.7337812 4.4550781 9.5507812L4.296875 9.484375C3.786875 9.273375 3.2002813 9.5153906 2.9882812 10.025391C2.7772813 10.535391 3.0192969 11.120031 3.5292969 11.332031L3.6855469 11.396484C4.1245469 11.578484 4.3892031 12.047719 4.2832031 12.511719C4.2322031 12.735719 4.1873906 12.962406 4.1503906 13.191406C4.0753906 13.662406 3.649875 14 3.171875 14L3 14C2.448 14 2 14.448 2 15C2 15.552 2.448 16 3 16L3.171875 16C3.649875 16 4.0763437 16.336594 4.1523438 16.808594C4.1893437 17.037594 4.2322031 17.264281 4.2832031 17.488281C4.3892031 17.952281 4.1265 18.421516 3.6875 18.603516L3.53125 18.669922C3.02125 18.880922 2.7782344 19.465563 2.9902344 19.976562C3.2012344 20.486563 3.785875 20.729578 4.296875 20.517578L4.4570312 20.451172C4.8980312 20.268172 5.418875 20.415312 5.671875 20.820312C5.793875 21.016313 5.9206875 21.208484 6.0546875 21.396484C6.3316875 21.784484 6.2686406 22.321203 5.9316406 22.658203L5.8085938 22.779297C5.4175937 23.170297 5.4175938 23.803359 5.8085938 24.193359C6.1995938 24.583359 6.8326562 24.584359 7.2226562 24.193359L7.3457031 24.072266C7.6827031 23.735266 8.2174688 23.670266 8.6054688 23.947266C8.7934688 24.081266 8.9856406 24.210031 9.1816406 24.332031C9.5866406 24.584031 9.7357344 25.105875 9.5527344 25.546875L9.4863281 25.705078C9.2753281 26.215078 9.5173438 26.801672 10.027344 27.013672C10.537344 27.224672 11.121984 26.982656 11.333984 26.472656L11.398438 26.316406C11.580438 25.877406 12.049672 25.61275 12.513672 25.71875C12.737672 25.76975 12.964359 25.814562 13.193359 25.851562C13.662359 25.924562 14 26.350125 14 26.828125L14 27C14 27.552 14.448 28 15 28C15.552 28 16 27.552 16 27L16 26.828125C16 26.350125 16.336594 25.923656 16.808594 25.847656C17.037594 25.810656 17.264281 25.767797 17.488281 25.716797C17.952281 25.610797 18.421516 25.8735 18.603516 26.3125L18.669922 26.46875C18.880922 26.97875 19.465563 27.221766 19.976562 27.009766C20.486563 26.798766 20.729578 26.214125 20.517578 25.703125L20.451172 25.542969C20.268172 25.101969 20.415312 24.581125 20.820312 24.328125C21.016313 24.206125 21.208484 24.079312 21.396484 23.945312C21.784484 23.668312 22.321203 23.731359 22.658203 24.068359L22.779297 24.191406C23.170297 24.582406 23.803359 24.582406 24.193359 24.191406C24.583359 23.800406 24.584359 23.167344 24.193359 22.777344L24.072266 22.654297C23.735266 22.317297 23.670266 21.782531 23.947266 21.394531C24.081266 21.206531 24.210031 21.014359 24.332031 20.818359C24.584031 20.413359 25.105875 20.264266 25.546875 20.447266L25.705078 20.513672C26.215078 20.724672 26.801672 20.482656 27.013672 19.972656C27.224672 19.462656 26.982656 18.878016 26.472656 18.666016L26.316406 18.601562C25.877406 18.419563 25.61275 17.950328 25.71875 17.486328C25.76975 17.262328 25.814562 17.035641 25.851562 16.806641C25.924562 16.337641 26.350125 16 26.828125 16L27 16C27.552 16 28 15.552 28 15C28 14.448 27.552 14 27 14L26.828125 14C26.350125 14 25.923656 13.663406 25.847656 13.191406C25.810656 12.962406 25.767797 12.735719 25.716797 12.511719C25.610797 12.047719 25.8735 11.578484 26.3125 11.396484L26.46875 11.330078C26.97875 11.119078 27.221766 10.534437 27.009766 10.023438C26.798766 9.5134375 26.214125 9.2704219 25.703125 9.4824219L25.542969 9.5488281C25.101969 9.7318281 24.581125 9.5846875 24.328125 9.1796875C24.206125 8.9836875 24.079312 8.7915156 23.945312 8.6035156C23.668312 8.2155156 23.731359 7.6787969 24.068359 7.3417969L24.191406 7.2207031C24.582406 6.8297031 24.582406 6.1966406 24.191406 5.8066406C23.800406 5.4156406 23.167344 5.4156406 22.777344 5.8066406L22.65625 5.9296875C22.31925 6.2666875 21.782531 6.3316875 21.394531 6.0546875C21.206531 5.9206875 21.014359 5.7919219 20.818359 5.6699219C20.413359 5.4179219 20.266219 4.8960781 20.449219 4.4550781L20.515625 4.296875C20.726625 3.786875 20.484609 3.2002812 19.974609 2.9882812C19.464609 2.7772813 18.879969 3.0192969 18.667969 3.5292969L18.601562 3.6855469C18.419563 4.1245469 17.950328 4.3892031 17.486328 4.2832031C17.262328 4.2322031 17.035641 4.1873906 16.806641 4.1503906C16.336641 4.0753906 16 3.649875 16 3.171875L16 3C16 2.448 15.552 2 15 2 z M 15 7C19.078645 7 22.438586 10.054876 22.931641 14L16.728516 14 A 2 2 0 0 0 15 13 A 2 2 0 0 0 14.998047 13L11.896484 7.625C12.850999 7.222729 13.899211 7 15 7 z M 10.169922 8.6328125L13.269531 14 A 2 2 0 0 0 13 15 A 2 2 0 0 0 13.269531 15.996094L10.167969 21.365234C8.2464258 19.903996 7 17.600071 7 15C7 12.398945 8.2471371 10.093961 10.169922 8.6328125 z M 16.730469 16L22.931641 16C22.438586 19.945124 19.078645 23 15 23C13.899211 23 12.850999 22.777271 11.896484 22.375L14.998047 17 A 2 2 0 0 0 15 17 A 2 2 0 0 0 16.730469 16 z"/>
</symbol>
<symbol viewBox="0 0 30 30" id="play">
    <path d="M6 3 A 1 1 0 0 0 5 4 A 1 1 0 0 0 5 4.0039062L5 15L5 25.996094 A 1 1 0 0 0 5 26 A 1 1 0 0 0 6 27 A 1 1 0 0 0 6.5800781 26.8125L6.5820312 26.814453L26.416016 15.908203 A 1 1 0 0 0 27 15 A 1 1 0 0 0 26.388672 14.078125L6.5820312 3.1855469L6.5800781 3.1855469 A 1 1 0 0 0 6 3 z"/>
</symbol>
<symbol viewBox="0 0 30 30" id="chat-bubble">
    <path d="M15 3C7.82 3 2 7.925 2 14C2 17.368 3.7933281 20.378484 6.6113281 22.396484C6.6832805 23.932468 6.4452784 26.053382 4.3261719 27.03125 A 0.5 0.5 0 0 0 4.3222656 27.033203 A 0.5 0.5 0 0 0 4 27.5 A 0.5 0.5 0 0 0 4.5 28 A 0.5 0.5 0 0 0 4.5429688 27.998047C6.9769949 27.982445 9.0432734 26.667034 10.46875 25.277344C10.92075 24.836344 11.550875 24.619328 12.171875 24.736328C13.081875 24.909328 14.028 25 15 25C22.18 25 28 20.075 28 14C28 7.925 22.18 3 15 3 z M 9 12C10.105 12 11 12.895 11 14C11 15.105 10.105 16 9 16C7.895 16 7 15.105 7 14C7 12.895 7.895 12 9 12 z M 15 12C16.105 12 17 12.895 17 14C17 15.105 16.105 16 15 16C13.895 16 13 15.105 13 14C13 12.895 13.895 12 15 12 z M 21 12C22.105 12 23 12.895 23 14C23 15.105 22.105 16 21 16C19.895 16 19 15.105 19 14C19 12.895 19.895 12 21 12 z" />
</symbol>
<symbol viewBox="0 0 30 30" id="combo-chart">
    <path d="M24 4 A 2 2 0 0 0 22 6 A 2 2 0 0 0 22.029297 6.3398438L18.6875 9.125 A 2 2 0 0 0 18 9 A 2 2 0 0 0 16.898438 9.3320312L13.994141 7.8789062 A 2 2 0 0 0 12 6 A 2 2 0 0 0 10 8 A 2 2 0 0 0 10.005859 8.1289062L6.8847656 10.208984 A 2 2 0 0 0 6 10 A 2 2 0 0 0 4 12 A 2 2 0 0 0 6 14 A 2 2 0 0 0 8 12 A 2 2 0 0 0 7.9941406 11.873047L11.115234 9.7910156 A 2 2 0 0 0 12 10 A 2 2 0 0 0 13.101562 9.6679688L16.005859 11.121094 A 2 2 0 0 0 18 13 A 2 2 0 0 0 20 11 A 2 2 0 0 0 19.970703 10.660156L23.3125 7.875 A 2 2 0 0 0 24 8 A 2 2 0 0 0 26 6 A 2 2 0 0 0 24 4 z M 23 12C22.448 12 22 12.448 22 13L22 26L26 26L26 13C26 12.448 25.552 12 25 12L23 12 z M 11 14C10.448 14 10 14.448 10 15L10 26L14 26L14 15C14 14.448 13.552 14 13 14L11 14 z M 17 16C16.448 16 16 16.448 16 17L16 26L20 26L20 17C20 16.448 19.552 16 19 16L17 16 z M 5 18C4.448 18 4 18.448 4 19L4 26L8 26L8 19C8 18.448 7.552 18 7 18L5 18 z"/>
</symbol>
<symbol viewBox="0 0 60 51" id="heart">
    <path fill-rule="evenodd" clip-rule="evenodd" d="M29.9999 50.7C29.4339 50.7 28.8679 50.509 28.3019 50.1271L20.6603 45.2576C-3.5088e-05 31.5084 0 21.483 0 17.4728C0 8.02027 7.64144 0 17.2641 0C22.0754 0 26.8867 2.29152 29.9999 5.72881C33.1131 2.29152 37.9244 0 42.7358 0C52.3584 0 60 8.02027 60 17.4728C60 21.483 60 31.5084 39.3397 45.2576L31.6981 50.1271C31.1321 50.509 30.566 50.7 29.9999 50.7ZM17.2641 6.30173C11.0377 6.30173 5.94332 11.1711 5.94332 17.4728C5.94332 20.3372 5.94339 28.3576 24.0566 40.1017L29.9999 43.8254L35.9434 40.1017C54.0566 28.3576 54.0565 20.3372 54.0565 17.4728C54.0565 11.1711 48.9622 6.30173 42.7358 6.30173C38.4905 6.30173 34.5282 8.87973 32.8301 12.6035C32.2641 13.7492 31.132 14.322 29.9999 14.322C28.8678 14.322 27.7358 13.7492 27.1697 12.6035C25.4716 8.87973 21.5094 6.30173 17.2641 6.30173Z" fill="url(#paint0_linear_5_1362)"/>
    <defs>
    <linearGradient id="paint0_linear_5_1362" x1="-1.37161" y1="2.97071" x2="73.0647" y2="-4.5312" gradientUnits="userSpaceOnUse">
    <stop stop-color="#F7D0E5"/>
    <stop offset="1" stop-color="#79D6F4"/>
    </linearGradient>
    </defs>
</symbol>
</svg>