

<svg xmlns="http://www.w3.org/2000/svg" >
<symbol viewBox="0 0 30 30" id="trash">
    <path d="M14.984375 2.4863281 A 1.0001 1.0001 0 0 0 14 3.5L14 4L8.5 4 A 1.0001 1.0001 0 0 0 7.4863281 5L6 5 A 1.0001 1.0001 0 1 0 6 7L24 7 A 1.0001 1.0001 0 1 0 24 5L22.513672 5 A 1.0001 1.0001 0 0 0 21.5 4L16 4L16 3.5 A 1.0001 1.0001 0 0 0 14.984375 2.4863281 z M 6 9L7.7929688 24.234375C7.9109687 25.241375 8.7633438 26 9.7773438 26L20.222656 26C21.236656 26 22.088031 25.241375 22.207031 24.234375L24 9L6 9 z"/>
</symbol>
<symbol viewBox="0 0 30 30" id="heart">
    <path d="M9.5449219 4C5.9299219 4 3 6.9299219 3 10.544922C3 16.837321 10.298975 22.849799 13.708984 25.527344 A 2 2 0 0 0 13.71875 25.535156C13.742115 25.5535 13.773881 25.579629 13.796875 25.597656L13.798828 25.595703 A 2 2 0 0 0 15 26 A 2 2 0 0 0 16.203125 25.595703L16.203125 25.597656C16.209855 25.59238 16.219801 25.585381 16.226562 25.580078C16.231704 25.576045 16.23898 25.570455 16.244141 25.566406 A 2 2 0 0 0 16.263672 25.548828C19.663109 22.880904 27 16.852336 27 10.544922C27 6.9299219 24.070078 4 20.455078 4C17.000078 4 15 7 15 7C15 7 12.999922 4 9.5449219 4 z"/>
</symbol>
<symbol viewBox="0 0 30 30" id="expensive">
    <path d="M15 0 A 1 1 0 0 0 14 1 A 1 1 0 0 0 15 2 A 1 1 0 0 0 16 1 A 1 1 0 0 0 15 0 z M 9 1 A 1 1 0 0 0 8 2 A 1 1 0 0 0 9 3 A 1 1 0 0 0 10 2 A 1 1 0 0 0 9 1 z M 21 1 A 1 1 0 0 0 20 2 A 1 1 0 0 0 21 3 A 1 1 0 0 0 22 2 A 1 1 0 0 0 21 1 z M 3 3 A 1 1 0 0 0 2 4 A 1 1 0 0 0 3 5 A 1 1 0 0 0 4 4 A 1 1 0 0 0 3 3 z M 27 3 A 1 1 0 0 0 26 4 A 1 1 0 0 0 27 5 A 1 1 0 0 0 28 4 A 1 1 0 0 0 27 3 z M 21.990234 4.9707031 A 1.0001 1.0001 0 0 0 21.769531 5L8.1523438 5 A 1.0001 1.0001 0 0 0 8.0019531 4.9863281 A 1.0001 1.0001 0 0 0 7.1503906 5.453125L1.3242188 12.251953 A 1.0001 1.0001 0 0 0 1.3828125 13.796875L14.269531 26.683594 A 1.0001 1.0001 0 0 0 14.279297 26.695312L14.292969 26.707031 A 1.0001 1.0001 0 0 0 14.447266 26.833984 A 1.0001 1.0001 0 0 0 14.455078 26.837891 A 1.0001 1.0001 0 0 0 14.529297 26.882812 A 1.0001 1.0001 0 0 0 14.544922 26.888672 A 1.0001 1.0001 0 0 0 14.914062 26.996094 A 1.0001 1.0001 0 0 0 15.015625 27 A 1.0001 1.0001 0 0 0 15.054688 26.998047 A 1.0001 1.0001 0 0 0 15.105469 26.994141 A 1.0001 1.0001 0 0 0 15.115234 26.994141 A 1.0001 1.0001 0 0 0 15.132812 26.990234 A 1.0001 1.0001 0 0 0 15.212891 26.976562 A 1.0001 1.0001 0 0 0 15.291016 26.957031 A 1.0001 1.0001 0 0 0 15.310547 26.951172 A 1.0001 1.0001 0 0 0 15.332031 26.943359 A 1.0001 1.0001 0 0 0 15.492188 26.871094 A 1.0001 1.0001 0 0 0 15.494141 26.869141 A 1.0001 1.0001 0 0 0 15.560547 26.828125 A 1.0001 1.0001 0 0 0 15.576172 26.816406 A 1.0001 1.0001 0 0 0 15.707031 26.707031L15.714844 26.701172 A 1.0001 1.0001 0 0 0 15.728516 26.685547L28.619141 13.794922 A 1.0001 1.0001 0 0 0 28.675781 12.251953L22.892578 5.5058594 A 1.0001 1.0001 0 0 0 21.990234 4.9707031 z M 15 7.7226562L18.054688 12L11.945312 12L15 7.7226562 z M 22.451172 8.0605469L25.826172 12L21.326172 12L22.451172 8.0605469 z M 7.5488281 8.0625L8.6738281 12L4.1738281 12L7.5488281 8.0625 z M 11.457031 14L18.542969 14L15 23.212891L11.457031 14 z"/>
</symbol>
<symbol viewBox="0 0 30 30" id="buyfirstly">
    <path d="M15 3C8.3844276 3 3 8.3844276 3 15C3 21.615572 8.3844276 27 15 27C21.615572 27 27 21.615572 27 15C27 8.3844276 21.615572 3 15 3 z M 15 5C20.534692 5 25 9.4653079 25 15C25 20.534692 20.534692 25 15 25C9.4653079 25 5 20.534692 5 15C5 9.4653079 9.4653079 5 15 5 z M 13.787109 9L13.988281 17L16.011719 17L16.212891 9L13.787109 9 z M 15.003906 18.810547C14.174906 18.810547 13.679688 19.252813 13.679688 20.007812C13.679688 20.748813 14.175906 21.189453 15.003906 21.189453C15.825906 21.189453 16.318359 20.748812 16.318359 20.007812C16.318359 19.252813 15.825906 18.810547 15.003906 18.810547 z"/>
</symbol>
<symbol viewBox="0 0 30 30" id="allgoods">
    <path d="M2 2 A 1.0001 1.0001 0 1 0 2 4L3.8789062 4C4.1048086 4 4.2933102 4.1414634 4.3574219 4.359375L8.6191406 18.847656C8.993174 20.11937 10.169409 21 11.496094 21L22.472656 21C23.821072 21 25.011657 20.088693 25.367188 18.789062L27.964844 9.2636719 A 1.0001 1.0001 0 0 0 27 8L7.5136719 8L6.2773438 3.7949219 A 1.0001 1.0001 0 0 0 6.2753906 3.7949219C5.9634991 2.7348335 4.9830041 2 3.8789062 2L2 2 z M 12 23 A 2 2 0 0 0 10 25 A 2 2 0 0 0 12 27 A 2 2 0 0 0 14 25 A 2 2 0 0 0 12 23 z M 22 23 A 2 2 0 0 0 20 25 A 2 2 0 0 0 22 27 A 2 2 0 0 0 24 25 A 2 2 0 0 0 22 23 z"/>
</symbol>
<symbol viewBox="0 0 30 30" id="star">
    <path d="M15.765,2.434l2.875,8.512l8.983,0.104c0.773,0.009,1.093,0.994,0.473,1.455l-7.207,5.364l2.677,8.576 c0.23,0.738-0.607,1.346-1.238,0.899L15,22.147l-7.329,5.196c-0.63,0.447-1.468-0.162-1.238-0.899l2.677-8.576l-7.207-5.364 c-0.62-0.461-0.3-1.446,0.473-1.455l8.983-0.104l2.875-8.512C14.482,1.701,15.518,1.701,15.765,2.434z"/>
</symbol>
<symbol viewBox="0 0 30 30" id="summ">
    <path d="M15,5C9.477,5,5,9.477,5,15c0,5.523,4.477,10,10,10s10-4.477,10-10C25,9.477,20.523,5,15,5z M16,19.398V21h-2v-1.597 c-1.471-0.276-2.396-1.18-2.45-2.501h1.732c0.083,0.694,0.783,1.139,1.792,1.139c0.931,0,1.59-0.451,1.59-1.098 c0-0.546-0.427-0.86-1.477-1.086l-1.115-0.237c-1.56-0.326-2.326-1.139-2.326-2.444c0-1.313,0.869-2.249,2.254-2.557V9h2v1.616 c1.35,0.302,2.252,1.222,2.296,2.465h-1.685c-0.083-0.676-0.712-1.127-1.578-1.127c-0.896,0-1.489,0.415-1.489,1.068 c0,0.528,0.409,0.831,1.412,1.044l1.032,0.22c1.721,0.362,2.462,1.104,2.462,2.432C18.45,18.148,17.532,19.107,16,19.398z"/>
</symbol>
<symbol viewBox="0 0 30 30" id="total">
    <path d="M13 -0.01171875C12.15 -0.01171875 11.338484 0.35142188 10.771484 0.98242188L4.4550781 8L1 8C0.45 8 0 8.45 0 9L0 11C0 11.55 0.45 12 1 12L1.3300781 12L2.7207031 20.330078C2.8807031 21.290078 3.7194531 22 4.6894531 22L14.060547 22C14.300547 19.73 15.39 17.719297 17 16.279297L17 13C17 12.45 17.45 12 18 12C18.55 12 19 12.45 19 13L19 14.929688C20.21 14.329688 21.56 14 23 14C23.45 14 23.890312 14.029844 24.320312 14.089844L24.669922 12L25 12C25.55 12 26 11.55 26 11L26 9C26 8.45 25.55 8 25 8L21.544922 8L15.228516 0.98242188C14.661516 0.35242187 13.85 -0.01171875 13 -0.01171875 z M 13 1.9980469C13.275375 1.9980469 13.550188 2.1063125 13.742188 2.3203125L18.855469 8L7.1445312 8L12.257812 2.3203125C12.450312 2.1063125 12.724625 1.9980469 13 1.9980469 z M 8 12C8.55 12 9 12.45 9 13L9 18C9 18.55 8.55 19 8 19C7.45 19 7 18.55 7 18L7 13C7 12.45 7.45 12 8 12 z M 13 12C13.55 12 14 12.45 14 13L14 18C14 18.55 13.55 19 13 19C12.45 19 12 18.55 12 18L12 13C12 12.45 12.45 12 13 12 z M 23 16C21.51 16 20.13 16.459766 19 17.259766C18.39 17.679766 17.850156 18.200781 17.410156 18.800781C16.710156 19.720781 16.240078 20.81 16.080078 22C16.020078 22.32 16 22.66 16 23C16 26.87 19.13 30 23 30C26.87 30 30 26.87 30 23C30 19.47 27.390234 16.550078 23.990234 16.080078C23.670234 16.020078 23.34 16 23 16 z M 26 20C26.26 20 26.510938 20.099063 26.710938 20.289062C27.100938 20.679063 27.100938 21.320938 26.710938 21.710938L22.710938 25.710938C22.510938 25.900937 22.26 26 22 26C21.74 26 21.489062 25.900938 21.289062 25.710938L19.289062 23.710938C18.899062 23.320937 18.899062 22.679062 19.289062 22.289062C19.479063 22.099063 19.74 22 20 22C20.26 22 20.520937 22.099062 20.710938 22.289062L22 23.589844L25.289062 20.289062C25.489062 20.099063 25.74 20 26 20 z"/>
</symbol>
</svg>